<?xml version="1.0" encoding="utf-8"?>
<!-- Generator: Adobe Illustrator 23.0.0, SVG Export Plug-In . SVG Version: 6.00 Build 0)  -->
<svg version="1.1" id="Layer_1" xmlns="http://www.w3.org/2000/svg" xmlns:xlink="http://www.w3.org/1999/xlink" x="0px" y="0px"
	 viewBox="0 0 800 800" style="enable-background:new 0 0 800 800;" xml:space="preserve">
<style type="text/css">
	.st0{fill:#F3DDB9;}
	.st1{fill:#A9C4DA;}
	.st2{fill:#6C686F;}
	.st3{fill:#000003;}
	.st4{fill:#F2A74E;}
	.st5{fill:#77431D;}
	.st6{fill:#FFFFFF;}
	.st7{fill:#F8A106;}
	.st8{fill:#FFA9BA;}
	.st9{fill:#5FD6FF;}
	.st10{fill:#FFCD2E;}
	.st11{fill:none;stroke:#444444;stroke-width:12;stroke-miterlimit:10;}
</style>
<g>
	<path class="st0" d="M365.1,526.3c24.1,22.3,39.1,54.2,39.1,89.6c0,67.5-54.7,122.2-122.2,122.2c-67.5,0-122.2-54.7-122.2-122.2
		c0-35.4,15.1-67.3,39.1-89.6h0l8.1-48.8c1.5-8.9,7.4-16.4,16.4-16.4h117c9,0,14.9,7.5,16.4,16.4L365.1,526.3L365.1,526.3
		L365.1,526.3z M282.1,526.3c-49.5,0-89.6,40.1-89.6,89.6c0,49.5,40.1,89.6,89.6,89.6c49.5,0,89.6-40.1,89.6-89.6
		C371.7,566.5,331.6,526.3,282.1,526.3z"/>
	<path class="st1" d="M282.1,738.1c9,0,16.3-7.3,16.3-16.3c0-9-7.3-16.3-16.3-16.3c-9,0-16.3,7.3-16.3,16.3S273.1,738.1,282.1,738.1
		z"/>
	<path class="st2" d="M354.1,562.7c11,14.9,17.6,33.3,17.6,53.3c0,40.6-26.9,74.8-63.9,85.9c-8.1,2.4-16.8,3.7-25.7,3.7
		c9,0,16.3,7.3,16.3,16.3c0,9-7.3,16.3-16.3,16.3c4.7,0,9.3-0.3,13.9-0.8c13.8-1.6,27-5.4,39-11.2c41-19.7,69.3-61.6,69.3-110.2
		c0-20.3-5-39.5-13.8-56.4c-0.1-0.2-0.2-0.4-0.3-0.6c-6.5-12.2-15-23.2-25-32.6c0,0,0,0,0,0l-82.6,0c6.6,0,13.1,0.8,19.3,2.2
		C323.1,533.3,341.6,545.7,354.1,562.7z"/>
	<path class="st0" d="M267.4,493.8c24.1,22.3,39.1,54.2,39.1,89.6c0,67.5-54.7,122.2-122.2,122.2c-67.5,0-122.2-54.7-122.2-122.2
		c0-35.4,15.1-67.3,39.1-89.6h0l8.1-48.8c1.5-8.9,7.4-16.4,16.4-16.4h117c9,0,14.9,7.5,16.4,16.4L267.4,493.8L267.4,493.8
		L267.4,493.8z M184.3,493.8c-49.5,0-89.6,40.1-89.6,89.6c0,49.5,40.1,89.6,89.6,89.6c49.5,0,89.6-40.1,89.6-89.6
		C273.9,533.9,233.8,493.8,184.3,493.8z"/>
	<path class="st1" d="M184.3,705.5c9,0,16.3-7.3,16.3-16.3c0-9-7.3-16.3-16.3-16.3c-9,0-16.3,7.3-16.3,16.3
		C168,698.2,175.4,705.5,184.3,705.5z"/>
	<path class="st2" d="M256.4,530.1c11,14.9,17.6,33.3,17.6,53.3c0,40.6-26.9,74.8-63.9,85.9c-8.1,2.4-16.8,3.7-25.7,3.7
		c9,0,16.3,7.3,16.3,16.3c0,9-7.3,16.3-16.3,16.3c4.7,0,9.3-0.3,13.9-0.8c13.8-1.6,27-5.4,39-11.2c41-19.7,69.3-61.6,69.3-110.2
		c0-20.3-5-39.5-13.8-56.4c-0.1-0.2-0.2-0.4-0.3-0.6c-6.5-12.2-15-23.2-25-32.6c0,0,0,0,0,0l-82.6,0c6.6,0,13.1,0.8,19.3,2.2
		C225.4,500.7,243.8,513.1,256.4,530.1z"/>
</g>
<g>
	<path class="st3" d="M151.7,469.3h0.2c4.5,0,8.1-3.6,8.1-8.1s-3.6-8.1-8.1-8.1h-0.2c-4.5,0-8.1,3.6-8.1,8.1
		S147.3,469.3,151.7,469.3z"/>
	<path class="st3" d="M175.3,469.3h41.6c4.5,0,8.1-3.6,8.1-8.1c0-4.5-3.6-8.1-8.1-8.1h-41.6c-4.5,0-8.1,3.6-8.1,8.1
		S170.8,469.3,175.3,469.3z"/>
	<path class="st3" d="M372.7,522.3l-7.7-46.1c-2.3-13.9-12.1-23.2-24.4-23.2h-50.4v-40.7c0-31.4-25.6-57-57-57s-57,25.6-57,57v8.1
		h-50.4c-12.3,0-22.1,9.3-24.4,23.2l-7.7,46.1C68.4,514.2,54,548.2,54,583.4c0,71.9,58.5,130.3,130.3,130.3h0l0,0c0,0,0,0,0,0
		c3.7,0,7.4-0.2,11-0.5c23.9,21.3,54.6,33.1,86.7,33.1c71.9,0,130.3-58.5,130.3-130.3C412.4,580.7,398,546.8,372.7,522.3z
		 M349,478.9l6.6,39.3l-58.4,0c-3.3-5.7-7-11.1-11.1-16.3h5c4.5,0,8.1-3.6,8.1-8.1c0-4.5-3.6-8.1-8.1-8.1h-16.8l-2.7-16.3h69
		C345.6,469.3,348.2,474.5,349,478.9z M290.2,721.8c0,4.5-3.7,8.1-8.1,8.1c-4.5,0-8.1-3.7-8.1-8.1s3.7-8.1,8.1-8.1
		C286.6,713.7,290.2,717.3,290.2,721.8z M282.1,697.4c-9.2,0-18.4-1.6-27-4.6c35.8-23.2,59.6-63.6,59.6-109.4
		c0-15.5-2.8-30.8-8.1-45.1c33.3,10.5,57,41.6,57,77.7C363.5,660.9,327,697.4,282.1,697.4z M184.3,697.4c-4.5,0-8.1-3.7-8.1-8.1
		c0-4.5,3.7-8.1,8.1-8.1c4.5,0,8.1,3.7,8.1,8.1S188.8,697.4,184.3,697.4C184.3,697.4,184.3,697.4,184.3,697.4z M184.3,501.9
		C184.3,501.9,184.3,501.9,184.3,501.9l0.2,0c3.5,0,6.9,0.2,10.3,0.7l-3.3,19.8c-25.2,24.5-39.7,58.4-39.7,93.6
		c0,15.4,2.8,30.7,8,45.1c-33-10.4-56.9-41.3-56.9-77.7C102.9,538.5,139.4,501.9,184.3,501.9z M213.3,659.5
		c-8.3-13-12.6-28-12.6-43.6c0-33.7,21.3-64.2,52.5-76.1c8,12.6,12.7,27.5,12.7,43.6C265.8,618.1,243.9,647.8,213.3,659.5z
		 M204.1,557c-12.9,17.1-19.7,37.4-19.7,58.9c0,17,4.3,33.3,12.5,47.9c-4.1,0.6-8.3,1-12.5,1c-1.8,0-3.6-0.1-5.4-0.2
		c-7.2-15.2-10.9-31.6-10.9-48.7c0-31.6,13.3-62.1,36.5-83.6c1.5-1.4,2.3-3.1,2.5-5l3.5-21c12.2,4.2,23.2,11.2,32,20.3
		C227.5,533.2,214.1,543.8,204.1,557z M206.3,678.6c1.9-0.4,3.7-0.9,5.6-1.5c0.3-0.1,0.6-0.2,0.8-0.3c40.1-12.2,69.3-49.5,69.3-93.5
		c0-21.5-7-41.3-18.7-57.4c-0.3-0.5-0.6-0.9-0.9-1.3c-6.7-8.9-14.9-16.6-24.1-22.7h25.8c21.8,21.4,34.2,50.9,34.2,81.5
		c0,54.7-38.8,100.6-90.3,111.5c0.4-1.8,0.7-3.7,0.7-5.6C208.8,685.4,207.9,681.8,206.3,678.6z M192.5,412.3
		c0-22.5,18.3-40.7,40.7-40.7c22.5,0,40.7,18.3,40.7,40.7V453h-5.1l-1.6-9.4c-2.3-13.9-12.1-23.2-24.4-23.2h-50.4L192.5,412.3
		L192.5,412.3z M70.3,583.4c0-31.6,13.3-62.1,36.5-83.6c1.4-1.3,2.3-3.1,2.5-5l8.1-48.4c0.7-4.4,3.4-9.6,8.4-9.6h117
		c5,0,7.6,5.2,8.4,9.6l6.6,39.3l-73.3,0c0,0-0.1,0-0.1,0c-53.9,0-97.7,43.8-97.7,97.7c0,46.3,32.4,85.2,75.8,95.3
		c-1.6,3.2-2.4,6.8-2.4,10.6c0,1.9,0.2,3.8,0.7,5.6C109.1,683.9,70.3,638.1,70.3,583.4z M236.9,702.6c7.3,3.8,15.1,6.7,23.2,8.6
		c-1.6,3.2-2.4,6.8-2.4,10.6c0,1.9,0.2,3.8,0.7,5.7c-14.8-3.1-28.9-9.2-41.4-17.9C223.8,707.8,230.5,705.4,236.9,702.6z
		 M305.8,727.5c0.4-1.8,0.7-3.7,0.7-5.6c0-3.8-0.9-7.4-2.4-10.6c43.3-10,75.7-48.9,75.7-95.3c0-33.7-17.2-63.8-43.7-81.5h25.7
		c21.8,21.4,34.2,50.9,34.2,81.5C396.1,670.7,357.4,716.5,305.8,727.5z"/>
	<path class="st3" d="M314.5,501.9h0.2c4.5,0,8.1-3.6,8.1-8.1c0-4.5-3.6-8.1-8.1-8.1h-0.2c-4.5,0-8.1,3.6-8.1,8.1
		C306.3,498.3,310,501.9,314.5,501.9z"/>
</g>
<path class="st4" d="M764.3,237.2c0,60-82.8,108.7-185,108.7s-185-48.7-185-108.7s82.8-108.7,185-108.7S764.3,177.2,764.3,237.2z"/>
<path class="st5" d="M768.7,188.9c0,23.6-5.6,66.6-32.5,73.8c-27.9,7.5-47.9-15.2-70.6-15.2c-43.5,0-35.6,37.4-86.2,37.4
	s-50.7-25.4-76.3-35.7c-35.5-14.2-27.9,11.9-71.3,1.7c-37.3-8.8-41.7-23.9-41.7-62c0-72.7,84.8-131.6,189.4-131.6
	S768.7,116.2,768.7,188.9z"/>
<path class="st6" d="M644.8,156.7c0,17.5-29.3,31.8-65.4,31.8c-36.1,0-65.4-14.2-65.4-31.8s29.3-24.2,65.4-24.2
	S644.8,139.1,644.8,156.7L644.8,156.7z"/>
<path class="st7" d="M644.8,156.7c0,5.4-2.7,10.4-7.6,14.8c-3.6-13.7-25.1-23.3-57.8-23.3s-53.8,9.8-58.6,22.6
	c-4.4-4.3-6.8-9.1-6.8-14.1c0-17.5,29.3-31.8,65.4-31.8C615.5,124.9,644.8,139.1,644.8,156.7L644.8,156.7z"/>
<path class="st8" d="M452.8,180.7c-0.8,0-1.5-0.1-2.3-0.3l-25.2-6.1c-5.2-1.3-8.3-6.5-7.1-11.6c1.3-5.2,6.5-8.3,11.6-7.1l25.2,6.1
	c5.2,1.3,8.3,6.5,7.1,11.6C461.1,177.8,457.1,180.7,452.8,180.7z M704.7,224l23.5-10.2c4.9-2.1,7.1-7.8,5-12.7
	c-2.1-4.9-7.8-7.1-12.7-5L697,206.4c-4.9,2.1-7.1,7.8-5,12.7c1.6,3.6,5.1,5.8,8.8,5.8C702.1,224.8,703.4,224.6,704.7,224z
	 M582.7,90.6c1.3-5.2-1.9-10.4-7-11.6l-23.1-5.7c-5.2-1.3-10.4,1.9-11.6,7c-1.3,5.2,1.9,10.4,7,11.6l23.1,5.7
	c0.8,0.2,1.5,0.3,2.3,0.3C577.6,97.9,581.6,95,582.7,90.6L582.7,90.6z"/>
<path class="st9" d="M457.7,218.2c-3.7,0-7.3-2-9.1-5.6c-2.5-5-0.5-11.2,4.5-13.7l25.2-12.7c5-2.5,11.2-0.5,13.7,4.5
	c2.5,5,0.5,11.2-4.5,13.7l-25.2,12.7C460.8,217.8,459.3,218.2,457.7,218.2L457.7,218.2z M642.5,97.3l25.2-6.4
	c5.5-1.4,8.8-6.9,7.4-12.4c-1.4-5.5-6.9-8.8-12.4-7.4l-25.2,6.4c-5.5,1.4-8.8,6.9-7.4,12.4c1.2,4.6,5.3,7.7,9.9,7.7
	C640.9,97.6,641.7,97.5,642.5,97.3z M650,211.4l5-24.1c1.1-5.5-2.4-10.9-7.9-12.1c-5.5-1.1-10.9,2.4-12.1,7.9l-5,24.1
	c-1.1,5.5,2.4,10.9,7.9,12.1c0.7,0.1,1.4,0.2,2.1,0.2C644.8,219.5,649,216.2,650,211.4L650,211.4z"/>
<path class="st10" d="M579.3,240.2c-1.6,0-3.2-0.4-4.7-1.2l-23-12c-5-2.6-6.9-8.8-4.3-13.8c2.6-5,8.8-6.9,13.8-4.3l23,12
	c5,2.6,6.9,8.8,4.3,13.8C586.6,238.1,583.1,240.2,579.3,240.2L579.3,240.2z M475.1,122.6l21.1-11.3c4.4-2.3,6-7.8,3.7-12.2
	c-2.3-4.4-7.8-6-12.2-3.7l-21.1,11.3c-4.4,2.3-6,7.8-3.7,12.2C465.3,123.3,470.7,125,475.1,122.6
	C475.1,122.6,475.1,122.6,475.1,122.6L475.1,122.6z M734.4,140.6c0.6-5.6-3.4-10.6-9-11.3l-25.6-2.9c-5.6-0.6-10.6,3.4-11.3,9
	c-0.6,5.6,3.4,10.6,9,11.3l25.6,2.9c0.4,0,0.8,0.1,1.2,0.1C729.4,149.6,733.8,145.8,734.4,140.6L734.4,140.6z"/>
<line class="st11" x1="0" y1="3" x2="800" y2="803"/>
</svg>
