<svg xmlns="http://www.w3.org/2000/svg" width="569.22" height="620" viewBox="0 0 569.22 620"><defs/><path fill="#F5EBDC" d="M284.6 610c-117.2 0-182.04-9.66-224.25-33.56C29.32 558.9 10 532.46 10 507.54V176.78c0-37.12 27.2-79.58 70.69-110.6C116.8 40.5 181.63 10 284.6 10c179.26 0 274.61 96.86 274.61 166.78v330.5c0 25.17-19.32 51.61-50.6 69.16C466.67 600.33 401.83 610 284.6 610"/><path fill="#FF8732" d="M494.19 550.32C453.29 573.4 383.13 580 286.08 580c-97.05 0-167.22-6.6-208.1-29.68C53.41 536.49 41 517.65 41 504.13c0-7.69 4.1-12.1 13.2-12.1h463.74c9.12 0 13.21 4.41 13.21 12.1 0 13.52-12.42 32.36-36.96 46.19m23.75-358.12H54.21c-9.12 0-13.2-4.71-13.2-13.2 0-50.26 75.65-139 245.07-139 167.85 0 245.08 88.74 245.08 139 0 8.49-4.1 13.2-13.22 13.2"/><path fill="#D62300" d="M139.78 399.53c-1.42-2.2-1.57-3.61-1.57-4.23 0-1.73.95-2.99 2.83-4.71 4.4-4.1 15.27-14.3 21.24-23.57 4.56-7.06 6.44-13.5 6.44-18.84 0-13.66-12.42-24.35-25.95-24.35-8.66 0-16.83 4.87-22.34 13.82-7.39 11.94-16.2 25.76-21.86 31.26-1.41 1.42-2.2 1.73-3.3 1.73-1.89 0-2.67-1.26-2.67-3.3v-15.7c0-15.4-9.12-27.8-25.64-27.8-16.68 0-25.65 12.4-25.65 27.8v96.76c0 15.39 8.97 27.8 25.65 27.8 16.52 0 25.64-12.4 25.64-27.8v-22.3c0-1.89.78-3.3 2.67-3.3 2.52 0 3.15 2.52 3.78 3.77 3.62 8.64 14.15 27.01 23.91 37.85 6.6 7.23 14.79 11.79 23.44 11.79 14.63 0 26.9-12.73 26.9-26.4 0-8.48-3.62-14.76-10.54-22.3-8.81-9.6-19.2-22.16-22.98-27.97m196.17-84.67c24.7 0 40.27-15.7 40.27-38.64 0-14.6-8.82-24.66-26.43-24.66h-5.03c-9.29 0-16.52 4.4-16.52 14.3 0 8.8 7.7 13.04 13.53 13.04 2.99 0 4.88.94 4.88 3.14 0 2.82-3.3 4.71-7.08 4.71-11.8 0-19.82-8.33-19.82-23.88 0-17.27 11.02-23.55 19.5-23.55 10.39 0 12.12 5.34 19.36 5.34 8.33 0 14-6.91 14-14.13 0-5.34-2.36-9.42-5.98-12.26-6.6-4.87-15.88-8.47-29.73-8.47-24.39 0-48.13 16.02-48.13 53.08-.02 35.49 23.74 51.98 47.18 51.98m-276.55-.94h22.19c20.92 0 33.66-13.98 33.66-31.42 0-13.98-8.34-20.41-10.23-21.99-.78-.63-1.56-1.25-1.56-1.88 0-.78.46-1.1 1.26-2.04 2.98-3.46 5.97-8.95 5.97-16.97 0-18.84-12.75-28.9-32.57-28.9H59.4c-12.42 0-18.4 7.24-18.4 16.97v69.26c0 9.75 5.98 16.97 18.4 16.97m9.29-76.18c0-2.04 1.26-3.61 3.93-3.61h2.04c6.76 0 8.82 4.7 8.82 8.8 0 3.77-2.04 9.1-8.82 9.1h-2.04c-2.67 0-3.93-1.56-3.93-3.6v-10.69m0 36.76c0-2.04 1.26-3.62 3.93-3.62h2.83c7.55 0 9.75 5.02 9.75 9.58 0 4.1-2.2 9.9-9.75 9.9h-2.83c-2.67 0-3.93-1.57-3.93-3.61V274.5m401.44 40.2c10.07 0 15.57-7.54 15.57-16.96V281.1c0-2.04.95-2.98 2.52-2.98 1.88 0 2.5 1.1 2.82 2.98 1.42 8 5.2 18.84 9.44 24.35 5.35 7.07 10.38 9.27 15.42 9.27 8.17 0 15.26-6.44 15.26-14.46 0-5.34-2.2-9.27-5.04-12.87-5.35-6.75-8.65-11.15-10.69-16.65-.47-1.26-.16-2.36 1.26-3.45 4.88-3.77 10.54-12.1 10.54-25.29 0-19.95-16.52-31.26-36.5-31.26h-17.77c-12.43 0-18.4 7.22-18.4 16.96v70.06c0 9.42 5.5 16.95 15.57 16.95m13.84-74.28c0-2.04 1.26-3.62 3.93-3.62h2.2c6.61 0 8.65 4.71 8.65 8.8 0 3.93-2.04 9.1-8.65 9.1h-2.2c-2.68 0-3.93-1.55-3.93-3.6v-10.69.01m-272.45 83.4c-17.62 0-27.22 13.18-27.22 29.68v92.99c0 16.5 9.6 29.69 27.22 29.69 17.61 0 27.2-13.2 27.2-29.69v-93c0-16.48-9.58-29.68-27.2-29.68M491.2 384.3h-7.7c-13.85 0-24.54 6.44-24.54 20.57 0 12.88 11.64 19 20.29 19 4.24 0 7.23 1.26 7.23 4.56 0 4.08-5.03 6.75-10.38 6.75-17.78 0-29.89-12.1-29.89-34.56 0-24.97 16.52-34.08 29.26-34.08 15.57 0 18.09 7.86 28.94 7.86a20.86 20.86 0 0021.08-20.58c0-7.7-3.46-13.67-8.97-17.75-9.6-7.07-24.06-12.26-44.52-12.26-36.65 0-72.36 23.09-72.36 76.8 0 51.37 35.7 75.4 70.95 75.4 36.96 0 60.4-22.77 60.4-56.07 0-21.04-13.2-35.64-39.79-35.64m-59.46-70.37c8.82 0 15.74-5.18 15.74-14.6 0-9.28-6.93-14.46-15.73-14.46h-14.16c-2.67 0-3.93-1.57-3.93-3.61v-3c0-2.03 1.26-3.6 3.93-3.6h10.86c7.55 0 13.53-4.56 13.53-12.58 0-8-5.98-12.56-13.53-12.56h-10.86c-2.67 0-3.93-1.57-3.93-3.62v-2.51c0-2.04 1.26-3.61 3.93-3.61h14.16c8.8 0 15.73-5.19 15.73-14.6 0-9.28-6.92-14.47-15.73-14.47h-29.73c-12.42 0-18.4 7.23-18.4 16.97v69.27c0 9.73 5.97 16.96 18.4 16.96h29.73v.02m-270.26.78c25.49 0 39.02-15.24 39.02-34.4v-52.93c0-9.42-5.5-16.97-15.58-16.97-10.07 0-15.57 7.55-15.57 16.97v51.2c0 3.77-2.2 8.16-7.87 8.16s-7.56-4.4-7.56-8.16v-51.2c0-9.42-5.65-16.97-15.73-16.97-10.06 0-15.57 7.55-15.57 16.97v52.93c.01 19.17 13.39 34.4 38.87 34.4m110.42 0c8.18 0 15.27-6.44 15.27-14.45 0-5.34-2.2-9.27-5.04-12.88-4.56-5.97-8.65-11.15-10.69-16.64-.47-1.26-.16-2.37 1.26-3.47 4.88-3.76 10.55-12.09 10.55-25.28 0-19.95-16.53-31.26-36.5-31.26h-17.8c-12.41 0-18.4 7.22-18.4 16.97v70.05c0 9.42 5.51 16.97 15.58 16.97s15.58-7.55 15.58-16.97v-16.64c0-2.04.94-2.99 2.51-2.99 1.9 0 2.52 1.1 2.83 2.99 1.41 8 5.19 18.84 9.44 24.35 5.35 7.05 10.37 9.25 15.41 9.25m-25.8-60h-2.2c-2.68 0-3.93-1.57-3.93-3.61v-10.68c0-2.04 1.26-3.61 3.93-3.61h2.2c6.61 0 8.65 4.71 8.65 8.8 0 3.92-2.04 9.1-8.65 9.1m116.25 69.11c-16.2 0-25.01 12.1-25.01 27.33v33.93c0 2.82-.95 4.08-2.68 4.08-1.26 0-2.2-.78-3.3-2.98l-21.86-42.4c-8.34-16.18-17-19.95-26.9-19.95-16.52 0-25.64 12.4-25.64 27.96v97.07c0 15.24 8.8 27.34 25 27.34 16.21 0 25.01-12.1 25.01-27.34v-33.92c0-2.82.95-4.1 2.68-4.1 1.26 0 2.2.8 3.3 3l21.86 42.4c8.34 16.19 17.3 19.95 26.9 19.95 16.53 0 25.65-12.4 25.65-27.96v-97.07c0-15.24-8.8-27.33-25.01-27.33"/></svg>