<svg xmlns="http://www.w3.org/2000/svg" width="310" height="310.3" viewBox="0 0 310 310.3"><defs/><g fill-rule="evenodd"><path fill="#e4042c" d="M15.56 12.26a5.15 5.15 0 00-3.47 4.84c0 1.04 15.71 199.91 15.86 200.62l.09.45h51.41V11.87l-31.4.01c-29.98 0-31.46.02-32.49.38M230.7 115.02v103.15h51.36l.11-.86c.65-5.08 15.9-200.82 15.7-201.52a5.38 5.38 0 00-3.86-3.7c-.71-.15-10.42-.22-32.17-.22H230.7z"/><path fill="#050505" d="M12.34.2C5.44 1.2 0 7.46 0 14.4 0 17.23 22.37 298 22.7 299.31c1.45 5.72 6.6 10.12 12.65 10.81 1.28.15 38.87.2 121.03.15l119.18-.05 1.51-.47c5.16-1.6 9.04-5.51 10.27-10.37.67-2.6 22.96-284.64 22.66-286.7-.87-5.96-4.9-10.52-10.84-12.26C297.8.03 15.09-.19 12.34.21m286.11 4.07c4.38 1.47 7.37 5.07 7.78 9.36.17 1.7-22.19 283.11-22.6 284.69a11.1 11.1 0 01-7.66 7.7c-1.62.49-239.5.58-241.49.09-3.67-.91-6.8-3.8-7.87-7.26C26.22 297.6 3.83 18.03 3.83 14.42c0-4.82 3.7-9.23 8.67-10.3 2.33-.5 284.45-.34 285.95.16M149.53 14.43c-6.5.68-15.36 3.11-22.27 6.1-3.88 1.68-4.65 2.27-4.65 3.58 0 1.7-3.2 5.46-5.65 6.65-2.43 1.18-3.75 1.5-8.23 2.02-.48.05-.92.22-.97.37-.36.92 3.3 5.22 5.12 6.03 1.71.77.6 1.15-3.88 1.32-4.52.17-5.83.8-6.99 3.34-.55 1.22-.48 1.55.83 3.54 2.97 4.52 2.9 7.12-.29 9.66-4 3.18-4.03 3.72-1.03 15.94 1.16 4.71 2.24 8.94 2.4 9.4.32.87.17 1.28-.43 1.28s-1.82.89-2.22 1.6c-1.66 2.98-1.18 7.6 1.85 17.66 2.15 7.13 2.4 8.09 3.06 11.3 1.64 8.04 3.6 10.88 7.49 10.82 1.55-.03 1.6.04 1.77 2.28a33.5 33.5 0 002.92 11.5c.53 1.13.82 2.15 1 3.43.78 5.69 4.3 12.04 9.63 17.34 2.27 2.25 4.06 3.7 9.8 7.95a61 61 0 014.18 3.24c0 .08-2.06.2-4.58.26-4.47.11-6.4.36-6.95.91-.62.62-.84 10.62-.26 11.74.68 1.32 2.84 1.44 16.48.88 3.51-.15 3.32-.42 1.97 2.84-.55 1.33-1.94 4.83-3.1 7.77a200.6 200.6 0 01-7.63 17.32c-2.49 4.91-2.56 4.38.7 5.05.63.13 2.06.69 3.18 1.24 2.9 1.41 2.8 1.44 4.11-1.28 2.32-4.82 6.5-15.39 7.54-19.05.29-1.03.6-1.87.68-1.87.21 0 .19 18.58-.03 22.49-.23 4.15-.12 4.28 3.06 3.52 1.16-.28 2.6-.46 3.79-.47 2.27-.03 2.27-.03 2.6-2.75.94-7.4-.73-24.93-3.11-32.8-.65-2.15-.65-2.21.26-2.36 1.46-.24 7.66-.13 11.45.2 4.25.37 4.8.32 5.2-.49.48-.94.62-10.66.18-11.56-.68-1.35-3.68-1.96-8.46-1.72-2.89.14-2.92.11-1-1.07 6.31-3.88 15.91-12.45 18.56-16.56 4.07-6.3 7.59-17.8 7.6-24.8 0-3.03.06-3.13 2.15-3.26 4.04-.24 5.28-2.31 8.63-14.34 3.5-12.63 4.4-16.78 4.42-20.5.02-3.7-.33-4.4-3.16-6.13-.67-.4-.73-.07 1-5.53 1.81-5.77 2.27-7.57 2.42-9.46l.12-1.65-1-.97c-1.78-1.71-2.02-2.25-2.38-5.2-2.99-24.47-19.7-42.37-43.26-46.31-2.44-.41-12.15-.7-14.62-.44m9 4.71c9.57.97 18.64 4.65 27.38 11.14 8.65 6.41 13.38 14.97 15.18 27.47.74 5.1.25 16.66-.75 17.81-.7.81-.92.45-2.09-3.6-2.22-7.69-3.99-12.15-6.4-16.15-1.5-2.5-1.72-2-1.76 3.8l-.02 4.84.6.84c2.58 3.6 3.22 4.95 4.26 9.09.87 3.43 1.11 6.18.57 6.4-.2.07-1.65-.06-3.2-.3-3.44-.54-8.07-.65-17.36-.42-8.68.2-10.26.61-14.42 3.7-2.31 1.72-2.54 1.81-3.82 1.54a10.06 10.06 0 00-4.47.08c-1.47.38-1.9.23-3.91-1.4-4.43-3.58-5.74-3.83-19.74-3.84h-11.47l.1-1.62c.18-2.81 1.05-4.12 3.52-5.26 1.8-.83 1.66-.52 2.76-5.99 2.18-10.8 5.42-16.69 11.35-20.62 4.38-2.91 12.57-2.66 18.97.59 1.46.74 1.56.71 3.53-1 2.36-2.03 2.36-2.02-.3-4.62-9.26-9.06-19.86-11.04-32.55-6.08-1.53.6-2.82 1.01-2.85.93-.58-1.51 7.48-7.11 12.92-8.98 3.65-1.25 3.34-2.5-.62-2.5-1.52 0-1.79-.34-.96-1.2 2.7-2.82 17.32-5.48 25.55-4.65m-23.65 21.28c.93.4.77.6-1.05 1.4-5.59 2.42-8.86 5.54-12.08 11.5a9.3 9.3 0 01-2.46 3.2c-2.87 2.51-3.21 3.01-4.3 6.37a55.41 55.41 0 00-2.64 14.6c-.2 3.25-.38 3.68-1.83 4.41-1.4.7-1.24.96-2.52-4-3.58-13.84-3.58-13.83 1.49-21.13 1.25-1.8 1.03-4.2-.73-7.95-1.05-2.25-1.17-2.14 2.96-2.66a44.12 44.12 0 0012.43-3.75c4.33-2.08 8.6-2.88 10.73-1.99M118.6 82.8c1.1 1-.12 2.32-1.66 1.78a5.1 5.1 0 00-1.42-.3c-.82 0-1.15-.67-.54-1.1.25-.17.72-.31 1.06-.32.33 0 .74-.09.91-.2.46-.3 1.24-.23 1.65.14m75.12.05c1.46.26 1.93 1.43.58 1.43-.26 0-.85.14-1.32.3-1.12.4-1.34.38-1.82-.1-.88-.88-.22-2.15 1-1.92.4.08 1.1.2 1.56.3m-66.12 2.58c.05.35-.14.57-.86 1a136 136 0 00-3.16 2.02c-2.38 1.56-2.95 1.72-3.63 1.04-.72-.72.04-2.6 1.48-3.67 1.29-.96 6.05-1.26 6.17-.4m57.6-.33c2.42.61 2.9 4.42.56 4.42-1.48 0-6.16-3.45-5.83-4.3.15-.4 3.79-.49 5.27-.12m-46.8.78c1.03.5 2.08 1.8 1.87 2.33-.1.25-.45.28-2.19.19-2.5-.14-4.04.2-7.12 1.58-2.41 1.08-3.7 1.4-4.37 1.07-1.08-.53-.62-1.1 2.16-2.68l2.5-1.43c2.74-1.58 5.29-1.96 7.15-1.06m38.6.6c.46.23 1.54 1.06 2.4 1.84a31.9 31.9 0 002.93 2.33c1.58 1.06 1.67 1.16 1.27 1.5-.73.6-3-.25-5.22-1.96-2.1-1.6-3.53-1.91-6.57-1.39-2.99.52-3.25-.45-.51-1.85 2.25-1.15 4.07-1.3 5.7-.47m19.84.47c.47.88.54 2.12.35 6.39-.25 5.53.01 5.88 2.56 3.34 1.07-1.08 1.21-1.59.95-3.42-.42-2.95.93-5.45 2.7-4.98 2.9.76 2.92 3.11.12 13.14-.6 2.16-1.4 5.21-1.78 6.78-2.17 9-3.67 11.4-6.45 10.25-1.22-.51-1.54-.3-2.87 1.87-1.5 2.46-1.6 2.8-1.74 6-.68 15.55-8.3 28.43-19.38 32.76-2.88 1.13-3.64 1.12-4.92-.09-.88-.82-1.6-1.15-1.66-.75-.01.08-.04 1.15-.06 2.38-.04 2.63-.22 3.08-2.33 5.73-1.95 2.45-2.45 3.57-2.93 6.5-.58 3.64-9.2-4.93-11.61-11.54-.7-1.9-.65-4.66.11-7.16 1.43-4.65 1.71-6.9 1.26-9.91-.12-.84-.1-1.1.18-1.37.56-.57 1.04-.11 2.56 2.43.98 1.64 1.6.12 1.25-3.08-.18-1.67-.9-2.5-2.61-3-3.57-1.03-1.1-3.1 3.52-2.92 7.69.29 9.35.14 13.67-1.23 3.07-.97 3.32-.97 4.81 0 1.52.98 1.62 1.27 1.75 4.66.22 5.85 2.33 5.53 3.56-.53.6-2.95.97-3.88 1.92-4.9 2.36-2.55 3.39-6.27 3.03-11-.21-2.87-.7-3.64-3-4.74-1.47-.69-3.3-2.53-5.08-5.08-2.82-4.04-4.12-5.27-6.72-6.34-2.38-.98-3.09-.53-2.54 1.58.76 2.94.43 3.6-2.6 5.07-4.55 2.22-8.38 2.08-12.03-.45-3.61-2.5-4.08-5.63-1.63-10.81 1.11-2.34 1.29-2.98 1.73-6.25.8-5.93 1.39-7.16 3.42-7.16 1.74 0 2.5.7 3.03 2.82 1.05 4.1 2.72 5.74 4.52 4.43 1.24-.9 1.36-1.3.75-2.6-.82-1.76-.38-2.04 1.61-1.02 2.6 1.34 7.26 1.87 10.55 1.22 3.57-.72 5.03-.43 5.85 1.16.54 1.07.75 1.2 2.34 1.45 2.52.4 2.74.62 2.2 2.26-.67 2.02-2.76 3.47-6.03 4.18-2.1.46-2.13.48-2.13 1.4 0 1.72 1.54 2.1 4.96 1.23 4.69-1.2 6.7-4.2 8.34-12.5 1.05-5.26 1.1-5.34 3.44-6.12 1.96-.66 2.73-.68 3.06-.08m-87.21 1.96c1.29.78 1.8 2.5 1.21 4.1-.67 1.84-.63 2.35.86 10.53 1.21 6.6.93 8.3-1.1 6.53-.88-.78-1.22-1.4-1.6-2.94-.15-.65-.98-3.67-1.82-6.72-1.74-6.23-1.98-7.88-1.45-9.72.59-2 2.27-2.77 3.9-1.78m26.7 4.64c2.67.47 3.68.5 5.97.17 2.18-.32 2.45-.12 1.4 1.04-.88.97-.88.95-.2 2.23 1.51 2.9-1.94 5.65-7.77 6.15-1.8.16-2.04.33-2.04 1.5s.55 1.44 2.88 1.42c2.65-.03 2.56-.04 2.56.23 0 .13-.26.65-.6 1.16a8.88 8.88 0 00-.9 2.13c-.4 1.53-.5 1.62-2.8 2.53-1.06.41-2.5 1.16-3.2 1.66-5.88 4.19-8.72 2.93-11.35-5.03-1.84-5.54-1.43-6.41 2.2-4.67 2.42 1.16 3.39 1.25 3.94.35.85-1.4.63-1.9-1.27-2.8-3.33-1.58-5.53-5.08-3.87-6.17.55-.35.97-.22 2 .65 1.9 1.61 2.67 1.64 4.03.15 2.64-2.88 4.6-3.47 9.03-2.7m8.06 12.89c.41.33.44.44.22.91a5.5 5.5 0 00-.17 3.55c.84 2.39-.25 3.41-1.97 1.84-2.62-2.4-.78-8.48 1.92-6.3m22.97 10.15a18.8 18.8 0 012.31 2.47c1.72 2.11 3.91 3.97 5.15 4.36 5.66 1.8-4.59 4.4-12.23 3.1-1.1-.19-3.13-.7-4.51-1.14-2.94-.94-3.95-.95-6.16-.07-4.96 1.98-13.71 2.2-17.22.42-2.13-1.08-2.08-1.66.2-2.63.83-.35 2.7-1.42 4.17-2.4 4.46-2.93 6.5-3.42 8.52-2.01 4.59 3.17 9.9 3.46 12.6.7a5.75 5.75 0 012.12-1.45c.61-.23 1.52-.66 2.02-.96 1.6-.95 2.1-1.02 3.03-.39m-39.95 6.7c.4.42.49.8.64 2.87.63 8.52 3.45 17.7 5.42 17.7.4 0 .6-.25 1.23-1.68 1.43-3.23 2.05-3.46 2.68-1.03.7 2.66 2.17 7.44 2.76 8.95.91 2.38.57 2.95-1.76 2.94-8.4-.03-20.52-19.4-16.82-26.9 1.35-2.75 4.5-4.29 5.85-2.85m35.08 6.56c2.97.28 2.84.8-.39 1.59-3.09.75-10.27 1.27-11.79.86-1.58-.43-3.37-1.94-2.67-2.27 1.07-.5 10.44-.61 14.85-.18m63.14 103.67c-22.5 1.57-36.19 14.04-36.17 32.96.01 18.94 19.13 28.64 45.88 23.28 5.58-1.11 5.23-.78 6.22-5.96 1.02-5.38.97-5.44-3.46-4.33-19.74 5-32.53-4.6-28.3-21.24 2.22-8.77 8.3-14.6 16.32-15.66 6.41-.85 10.64 1.85 10.96 7.01.14 2.26.17 2.28 3.6 2.28 3.42 0 3 .66 4.82-7.53 2.04-9.15 2.14-8.6-1.78-9.5a59.61 59.61 0 00-18.09-1.3m-150.5 1.24c-.33.51-1.14 3.92-1.14 4.77 0 .66.27.92 1.68 1.63a3.88 3.88 0 012.31 3.48c.08 1.22-5.65 28.43-6.83 32.45-1.06 3.61-2.82 5.91-5 6.53-2.09.6-2.1.6-2.6 2.61-1.15 4.56-2.63 4.13 14.16 4.13 16.19 0 14.48.3 15.15-2.63.76-3.35.67-3.8-.86-4.41-.9-.36-2-1.48-2.28-2.32-.2-.6 2.07-12.24 2.95-15.1.16-.53.15-.54 2.9 4.4 7.83 14.03 11.53 17.98 18.36 19.57 2.06.48 17.6.68 18.2.24.38-.28 1.33-3.7 1.34-4.8.01-.84-.65-1.26-2.24-1.43-3.28-.35-3.73-.82-13.45-13.97-7.42-10.04-7.71-10.47-7.36-10.8 2.09-1.98 19.9-16.47 20.8-16.92a16.84 16.84 0 014.94-1.54c1.64-.2 1.89-.48 2.36-2.62.9-4.11 2.19-3.73-12.5-3.73-13.31 0-12.75-.05-13.01 1.07-1 4.21-.97 4.68.4 5.45 2.13 1.2 2.13 1.18-7.8 9.45-11.1 9.23-11.45 9.51-11.53 9.42-.13-.15 3.3-15.4 3.62-16.14a5.84 5.84 0 012.91-2.66c1.45-.64 1.48-.7 1.99-3.01.86-3.98 2.4-3.58-13.75-3.58H75.43zm68.15 0a20.6 20.6 0 00-1.13 4.77c0 .66.15.8 1.62 1.58.68.35 1.32.89 1.69 1.42 1.15 1.63 1.27.88-4 24.75-5.21 23.64-4.92 22.11-4.35 22.68.59.59 22.47.64 23.15.05.48-.4 1.56-5.02 1.35-5.7-.07-.23-.48-.58-.9-.8-3.38-1.72-3.43-2.74-.71-14.27l.1-.46h9.34c7.15 0 9.41-.05 9.67-.25.33-.24 2.16-7.76 2.16-8.88 0-1.16.08-1.15-9.75-1.15-8.44 0-9-.02-9-.35 0-.2.71-3.58 1.58-7.51l1.57-7.16 6.44-.06c9.7-.08 10.77.43 10.77 5.13 0 2.18.27 2.34 3.77 2.25 2.17-.05 2.74-.13 3-.4.33-.32 3.52-13.95 3.52-15 0-1.17 1.53-1.1-25.17-1.1h-24.43zm150.72 55.4c0 .6 0 .6 1.1.6h1.11v7.47h1.41v-7.46h1.11c1.1 0 1.11-.01 1.11-.61v-.6h-5.84zm7.86 3.73v4.34h1.2l.02-3.08v-3.07l.83 1.76c1.06 2.24 1.25 2.25 2.33.1l.84-1.66.01 2.97.01 2.98h1.21v-8.67h-.62c-.58 0-.66.1-1.58 2.06l-.97 2.07-1.04-2.07c-.96-1.93-1.07-2.06-1.64-2.06h-.6z"/><path fill="#fbfbfb" d="M12.9 4.15a10.5 10.5 0 00-8.86 10.48c0 1.9 22.04 280.58 22.36 282.69a10.87 10.87 0 008.57 8.75c2.08.38 238.58.3 240.4-.08a10.6 10.6 0 007.97-7.13c.39-1.27 22.77-280.85 22.77-284.47 0-4.3-2.83-8.17-7.21-9.84l-1.15-.44-142.17-.02c-78.2-.02-142.4.01-142.67.06m66.54 110.87v103.15h-25.8c-14.2 0-25.82-.07-25.82-.15l-7.98-100.73c-7.68-96.78-7.97-100.62-7.67-101.64a5.54 5.54 0 012.83-3.3l1.02-.47h63.42zM295.55 12.6a5.81 5.81 0 012.46 3.43c.15.73-1.46 21.78-7.74 100.88a54167.4 54167.4 0 00-7.95 100.61v.66h-51.83V11.87l32.03.05 32.03.06zm-131.7 2.1a55.63 55.63 0 0115.28 4.78c16 8.14 26.14 23.08 28.46 41.97.34 2.77.76 3.63 2.32 4.87 1.53 1.21 1.3 3.2-1.4 11.67-1.85 5.86-1.81 5.6-.97 6.05 4.48 2.4 4.23 6.5-1.72 27.66-3.09 10.98-4.47 13.16-8.56 13.46-1.9.14-1.85.07-1.85 2.72-.01 7.52-4.12 20.43-8.3 26.11-2.76 3.75-10.73 10.9-16.2 14.53-1.45.96-2.7 1.8-2.8 1.88-.08.07 1.33.13 3.13.13 7.74 0 7.85.11 7.65 8.12-.17 6.8.12 6.47-5.3 5.98-5.48-.49-7.82-.58-10.3-.43l-2.32.15.17.63c2.82 10.94 4.2 22.7 3.72 31.93-.26 5.12-.4 5.35-3.17 5.4-1.38.02-2.67.19-3.83.48-1.66.43-1.8.43-2.4.12l-.64-.33.13-3.86c.26-8.25.37-17.53.23-19.61l-.15-2.19-.67 2.21c-1.55 5.1-7.1 18.65-8.29 20.2-.66.88-.87.85-3.53-.45a16.36 16.36 0 00-3.5-1.31c-1.9-.33-2.06-.38-2.19-.7-.06-.17 1.08-2.73 2.58-5.8 3-6.1 4.96-10.63 7.94-18.3 1.1-2.83 2.24-5.7 2.54-6.4.67-1.59.68-1.95.06-1.8-.26.07-4.2.22-8.77.34-11.33.3-10.62.79-10.5-7.16.1-6.84-.23-6.53 7.2-6.76 2.58-.08 4.73-.2 4.78-.25a51.9 51.9 0 00-4.09-3.19c-12.8-9.47-18.13-16.43-19.4-25.37-.16-1.1-.5-2.3-1.01-3.43a32.98 32.98 0 01-2.82-10.79c-.27-2.92-.17-2.74-1.7-2.74-4 0-5.93-2.79-7.6-10.94-.7-3.38-1.26-5.46-3.02-11.2-2.8-9.12-3.46-13.91-2.33-16.98.52-1.41 1.88-2.63 2.93-2.63.51 0 .53.16-.17-2.17-.32-1.08-1-3.78-1.53-6-.52-2.21-1.3-5.39-1.74-7.05-1.77-6.75-1.44-8.21 2.68-11.65a6.42 6.42 0 001.69-2.06l.54-1.12-.34-1.36a15.75 15.75 0 00-2.36-5.14c-1.2-1.83-1.17-2.47.2-4.3 1.36-1.79 2.5-2.2 6.27-2.22 2.2-.02 3.37-.11 3.93-.32l.78-.3-.98-.57a17.11 17.11 0 01-4.62-4.79c-.8-1.52-.66-1.64 2.22-1.94 6.43-.67 11-3.75 12.22-8.26.5-1.8.95-2.17 5.02-3.9 12.48-5.34 25.64-7.37 36.4-5.63m-12.3 4.58c-10.15 1.04-16.41 2.6-18.53 4.6-.8.75-.5.96 1.44 1.02 3.67.12 3.74 1.52.15 2.72-4.32 1.44-10.67 5.46-12.36 7.83-.86 1.21-.96 1.22 2.6-.15 11.74-4.53 21.99-2.93 30.73 4.79 4.25 3.75 4.35 4.11 1.86 6.24-2.09 1.8-2.18 1.8-4.55.68-5-2.37-12.48-2.94-16.15-1.23-6.8 3.18-10.78 9.76-13.15 21.75-1.05 5.29-.9 4.95-2.65 5.77-2.66 1.23-3.73 3.02-3.77 6.35 0 .27 1.35.3 11.03.3 14.4 0 15.52.23 20.46 4.18 1.73 1.37 2.3 1.52 3.9 1.06 1.16-.34 1.95-.34 4.73.03.89.11.97.08 3.03-1.44 4.9-3.61 6.52-3.92 20.6-3.93 7.68 0 8.83.05 10.88.4 1.26.22 2.63.4 3.05.4h.76v-1.19c0-3.88-2.08-10.18-4.34-13.12-1.42-1.86-1.37-1.61-1.33-6.83.04-5.04.05-5.07.62-5.07 1.54 0 4.93 7.57 7.77 17.32 1.72 5.9 2.44 5.42 2.95-1.99.78-11.37-1.7-22.68-6.63-30.15-8.22-12.47-28.15-21.88-43.1-20.34M130.77 40.4c-2.37.38-3.74.83-6.6 2.16-4.58 2.13-11.4 4-14.56 4-1.55 0-1.63.25-.72 2.22 2.16 4.68 2.13 6.18-.19 9.37-3.36 4.65-3.69 6.24-2.44 11.9 1.1 5.06 2.94 12.2 3.13 12.2 1.74 0 2.57-1.36 2.77-4.5a60.85 60.85 0 012.87-15.42c.92-2.73 1.17-3.1 3.6-5.35 1.84-1.7 2.18-2.14 3.17-4 2.87-5.38 6.75-9.08 11.69-11.15 1.95-.83 2.1-1.04 1-1.44-.86-.32-1.67-.31-3.72.01M117 82.76c-.38.17-.92.3-1.21.3-1.23 0-1.38.87-.2 1.1.37.07 1.05.22 1.5.34 1.1.28 1.7-.01 1.7-.83 0-1.09-.63-1.4-1.8-.9m74.23.13c-.7.7-.05 1.9.92 1.7l1.47-.28c1.49-.28 1.97-.94.85-1.16l-1.42-.3c-1.12-.27-1.53-.26-1.82.04m-66.59 2.2c-2.74.3-4.44 1.44-4.76 3.17-.37 1.95.88 1.91 3.94-.1a75.52 75.52 0 013.02-1.93c.98-.53.75-1.42-.35-1.34l-1.85.2m55.55.03c-.31.82 3.36 3.83 5.2 4.26 2.03.48 2.43-3.06.45-3.93-1.25-.56-5.47-.8-5.65-.33m-46.07.74c-2.13.7-7.27 3.55-7.73 4.29-.79 1.24 1.22 1.17 4.15-.15 3.6-1.62 6.2-2.16 8.32-1.74 1.3.27 1.54.05 1-.93-.86-1.62-3.35-2.26-5.74-1.47m38.52.62c-2.9 1.04-4.05 2.71-1.54 2.25 3.36-.62 5.36-.25 7.4 1.38 2.03 1.59 4.27 2.44 4.97 1.88.24-.2.28-.33.13-.4-.63-.26-2.18-1.43-4-3.02-2.98-2.58-4.39-3-6.96-2.09m22 .43c-2.95.77-3.08.97-4.06 5.92-1.95 9.86-5.04 13.41-11.7 13.41-2.9 0-2.82-2.75.11-3.33 3.04-.6 5.05-1.85 5.87-3.62.89-1.9.68-2.21-1.65-2.55-1.81-.26-1.98-.36-2.53-1.43-.78-1.54-2.65-1.97-5.52-1.27-2.95.7-8.3.1-10.95-1.24-1.9-.95-2.19-.77-1.39.86.75 1.52-.1 2.95-2.03 3.44-1.06.26-2.63-2.03-3.48-5.08-.61-2.21-1.19-2.75-2.93-2.75-2.03 0-2.26.54-3.51 8.4-.37 2.3-.55 2.9-1.51 4.94-2.16 4.58-2.06 7.15.37 9.59 3.15 3.15 7.96 3.84 12.4 1.79 3.58-1.66 3.93-2.14 3.36-4.6-.66-2.84-.28-3.32 2-2.58 2.64.87 4.55 2.54 7.1 6.22 2.06 2.96 3.7 4.57 5.68 5.61 2.36 1.24 2.54 1.63 2.62 5.63.1 5-.6 7.43-2.78 9.8-1.09 1.18-1.58 2.36-2.02 4.84-.57 3.15-1.6 5.04-2.75 5.04-.8 0-1.28-2.16-1.29-5.96 0-3.13-2.16-4.1-6.29-2.8-4.5 1.42-7.02 1.7-11.36 1.28-3.82-.37-4.28-.34-5.83.39-1.84.86-1.95 1.8-.27 2.13 2.05.4 2.88 1.51 3.1 4.08.27 3.26-.69 3.96-2.04 1.5-1.5-2.73-2.3-2.5-1.9.56.3 2.45.13 3.81-1.05 7.85-1.39 4.73-1.3 6.59.43 10.23 1.95 4.1 5.93 8.58 9.13 10.28.97.51 1.12.35 1.5-1.61.4-2.13.98-3.34 2.56-5.32 2.28-2.86 2.4-3.14 2.53-5.93.14-3.1.35-3.31 1.77-1.92 1.28 1.25 1.92 1.36 3.89.66 11.27-4.03 18.77-15.5 20.17-30.87.59-6.48.4-5.68 1.81-8.02 1.55-2.57 1.83-2.76 3.2-2.17 2.63 1.13 4.08-1.2 6.18-9.95a171 171 0 011.7-6.43c2.99-10.54 2.88-13.64-.46-13.64-1.3 0-2.3 2.56-1.93 4.98l.25 1.67-.6.94c-.6.99-2.27 2.3-2.91 2.3-.69 0-.75-.58-.54-5.15.28-6.42.13-6.8-2.45-6.12m-88 2.3c-1.2 1.2-1.26 3.85-.17 7.96 3.2 11.95 3.28 12.2 4.62 13.11 1.56 1.07 1.62-.98.23-8.28-1-5.25-1.19-7.62-.72-8.74 1.27-3-1.83-6.18-3.95-4.06m24.7 4.43a8.3 8.3 0 00-3.73 2.52c-1.57 1.73-2.14 1.71-4.6-.14-1-.78-1.46-.82-1.9-.21-.97 1.39 1.08 4.23 4.06 5.62 2.06.96 2.4 1.84 1.25 3.3-.63.8-1.6.63-4.57-.84-2.59-1.28-2.98-.56-1.86 3.42 2.52 8.98 5.44 10.58 11.62 6.36.9-.61 2.4-1.4 3.33-1.77 2.14-.82 2.11-.8 2.6-2.42.22-.74.67-1.75 1-2.23.77-1.16.75-1.17-1.65-1.07-2.8.12-3.08-.03-3.08-1.65 0-1.4-.09-1.36 2.96-1.7 5-.54 8.12-3.25 6.64-5.76-.58-1-.54-1.57.2-2.42.89-1 .62-1.1-1.89-.75-2.07.3-2.28.3-4.83-.13-3.01-.49-4.3-.52-5.54-.13m10.84 13.18c-1.54 1.54-1.12 4.81.79 6.14 1.27.89 2.04.22 1.55-1.34a8.22 8.22 0 01-.1-4.2c.4-1.3-1.14-1.71-2.24-.6m23.38 9.66a9.3 9.3 0 00-1 .56c-.4.24-1.3.66-2.02.92a5.8 5.8 0 00-2.46 1.65c-2.6 2.63-7.52 2.44-12-.48-2.72-1.77-4.14-1.5-8.98 1.72a39 39 0 01-4.06 2.34c-1.95.9-2.08 1.14-1.05 1.92 2.9 2.2 12.27 2.24 17.9.06 2.27-.87 3.41-.86 6.34.1 6.22 2.03 15.19 1.9 17.84-.25.51-.41.13-1.23-.57-1.23-1.1 0-3.91-2.19-5.73-4.46-2.21-2.78-3-3.31-4.21-2.85m-40.7 6.69c-3.38 1.17-4.63 4.9-3.27 9.71 3.19 11.18 10.64 20.03 16.84 19.97 2.48-.02 2.51-.15 1.04-4.38-.4-1.12-1.13-3.52-1.65-5.34a33.77 33.77 0 00-1.1-3.48c-.3-.32-1.15.85-1.83 2.52-1 2.4-1.62 2.5-2.89.52-1.9-3-4.15-12.48-4.15-17.49 0-2.14-.9-2.75-2.99-2.03m25.01 6.71c-2.48.25-2.69.6-.96 1.67l1 .61 3.74-.03c5.46-.05 11.58-1.07 10.83-1.82-.45-.45-11.25-.77-14.61-.43m86.87 103.64c4.73.46 9.35 1.52 10.04 2.3.62.71.64.55-1.08 8.36-1.88 8.52-1.45 7.87-5.11 7.87-3.4 0-3.48-.05-3.66-2.6-.34-4.8-3.79-7.2-9.86-6.82-9.08.56-16.14 7.87-17.66 18.29-2.2 15.03 10.37 23.12 28.65 18.42 4.6-1.18 4.7-1.05 3.63 4.62-.9 4.73-.77 4.56-3.94 5.38-9.4 2.45-22.27 2.49-30.25.08-15.12-4.55-21.7-17.6-16.63-33.06 5.37-16.4 22.8-25.08 45.87-22.84m-133.83 1.23l.4.54-.47 2.26c-.54 2.56-.8 2.97-2.25 3.5a5.72 5.72 0 00-2.77 2.49 409.4 409.4 0 00-3.55 15.92c.07.08 19.51-16.09 19.81-16.47.62-.8.23-1.64-1.1-2.32-.4-.2-.7-.54-.8-.88-.2-.85.65-4.65 1.19-5.22l.43-.47h24.47l.46.5c.53.55.51.97-.1 3.7-.47 2.02-.65 2.2-2.79 2.56a16.63 16.63 0 00-5.47 1.95c-.67.43-18.98 15.56-19.84 16.4-.23.22.9 1.87 7.36 10.6 9.88 13.4 10 13.52 13.28 13.88 2.49.28 2.73.68 2.11 3.51-.8 3.72.05 3.44-9.9 3.3-15.12-.18-17.8-2.09-27.65-19.7l-2.72-4.8c-.25-.4-3.36 13.93-3.2 14.72.18.95.8 1.65 1.97 2.28 2.02 1.08 2.04 1.14 1.36 4.18-.55 2.47-.72 2.9-1.32 3.17-.35.16-4.44.22-14.17.22-16.67 0-15.34.37-14.33-3.97.54-2.3.74-2.6 2.03-2.87 2.77-.6 4.55-2.68 5.7-6.67.29-1.03 6.57-29.66 6.86-31.28a4.22 4.22 0 00-2.44-4.55c-1.77-.82-1.84-1.05-1.2-3.96.77-3.55-1.03-3.17 14.8-3.11l13.42.05zm89.98-.16c.64.64.74-.08-1.11 8.26-1.94 8.77-1.43 7.99-5.26 7.99-3.72 0-3.82-.07-3.82-2.69 0-2.12-.46-3.14-1.78-3.92l-.94-.55-7.1-.06-7.09-.06-.24 1.17-1.6 7.32-1.35 6.15 9.07.1 9.07.1.42.56.41.55-.94 4.27c-.72 3.25-1.05 4.38-1.39 4.74l-.44.47H160.2l-1.08 4.94c-1.49 6.81-1.39 7.51 1.33 9.33.62.41 1.2.93 1.27 1.15.25.71-.88 5.36-1.4 5.79-.56.44-21.91.58-22.87.14-1.14-.52-1.3.4 3.78-22.63 5.56-25.17 5.05-22.64 4.76-23.75-.35-1.28-1.07-2.12-2.44-2.81-1.69-.85-1.76-1.09-1.17-3.87.35-1.62.61-2.4.93-2.73l.44-.45h48.64z"/><path fill="#7c7c7c" d="M306.17 14.6c0 .55.04.75.09.45.05-.3.04-.76 0-1.01-.05-.25-.09 0-.09.56m-152.26 4.47c.2.05.52.05.71 0 .2-.05.04-.09-.35-.09-.4 0-.55.04-.36.1m1.82 0c.2.04.51.04.7 0 .2-.06.04-.1-.35-.1-.39 0-.54.04-.35.1m-48.6 21.37c.2.05.51.05.7 0 .2-.05.04-.1-.35-.1-.39 0-.54.05-.35.1m3.22 13.97c0 .4.04.55.1.36.05-.2.05-.51 0-.7-.06-.2-.1-.04-.1.34m79.66 3.23c0 .39.04.55.09.35.05-.2.05-.5 0-.7-.05-.2-.1-.04-.1.35m-90.72 5.04c0 .61.03.86.08.56.05-.3.05-.8 0-1.11-.05-.3-.08-.06-.08.55m12.89 15.73c0 .39.04.55.09.35.05-.19.05-.5 0-.7-.05-.2-.1-.04-.1.35m8.18 1.55c.25.05.66.05.9 0 .26-.04.05-.08-.45-.08s-.7.04-.45.08m16.13 0c.25.05.62.05.81 0 .2-.05-.01-.09-.46-.09-.44 0-.6.05-.35.1m37 0c.31.04.77.04 1.02 0 .24-.05 0-.1-.56-.09-.56 0-.76.04-.45.09m-19.46 5.04c.24.04.65.04.9 0 .25-.05.05-.1-.45-.1s-.7.05-.45.1m56.56 4.7c0 .38.04.54.09.35.05-.2.05-.51 0-.7-.05-.2-.1-.04-.1.34m-105.05 2.93c0 .55.04.76.1.45.04-.3.04-.76-.01-1-.05-.26-.09 0-.09.55m27.53.64c.25.05.6.05.8 0 .2-.05-.01-.09-.45-.09-.45 0-.6.05-.35.1m2.72 12.9c.3.05.76.05 1 0 .25-.05 0-.09-.55-.08-.56 0-.76.04-.45.08m42.85 0c.25.05.61.05.8 0 .2-.05 0-.1-.45-.1-.44.01-.6.05-.35.1m17.74 18.96c.25.04.66.04.91 0 .25-.05.05-.1-.45-.1s-.7.05-.46.1m-55.76 1.8c.2.06.52.06.71 0 .2-.04.04-.08-.35-.08-.39 0-.55.04-.36.09m14.02 2.63c.37.04.91.04 1.21 0 .3-.05.01-.09-.66-.09-.66 0-.9.04-.55.09m-5.15 17.4c0 .38.05.54.1.35.05-.2.05-.51 0-.7-.05-.2-.1-.04-.1.34m-18.72 30.56c0 1.55.03 2.16.07 1.35.04-.81.04-2.08 0-2.83-.04-.74-.07-.08-.07 1.48m10.56 7.3c.36.04.95.04 1.31 0 .36-.04.07-.08-.65-.08s-1.02.04-.66.08m13.83 29.1c0 .72.03 1.01.08.65.04-.36.04-.95 0-1.31-.05-.36-.08-.07-.08.65m13.81 29.6c1.8.03 4.71.03 6.45 0 1.74-.04.26-.06-3.29-.06s-4.97.02-3.16.06m68.05 6.4c0 .55.04.76.1.45.04-.3.04-.76-.01-1-.05-.26-.09 0-.09.55m2.42 2.07c.63.03 1.68.03 2.32 0 .63-.05.11-.08-1.16-.08-1.28 0-1.8.03-1.16.08m-74.62 16.94c2.53.03 6.66.03 9.18 0 2.52-.04.46-.06-4.59-.06s-7.1.02-4.59.06M71.03 290.5c3.75.03 9.87.03 13.62 0 3.74-.03.68-.05-6.81-.05-7.49 0-10.55.02-6.8.05m51.23 0c1.75.04 4.56.04 6.25 0 1.68-.03.25-.06-3.2-.06-3.43 0-4.8.03-3.05.06m20.94 0c2.96.03 7.86.03 10.9 0 3.02-.03.6-.05-5.39-.05-5.99 0-8.47.02-5.5.05"/><path fill="#6c6c6c" d="M84.23 3.96c38.83.03 102.45.03 141.36 0 38.9-.03 7.13-.05-70.62-.05s-109.58.02-70.74.05m70.5 10.28c.63.04 1.67.04 2.31 0 .64-.04.12-.07-1.16-.07-1.28 0-1.8.03-1.16.07m-12.9 30.45c.3.04.8.04 1.1 0 .3-.05.06-.09-.55-.09-.61 0-.86.04-.56.09m48.2 11.75c0 .39.04.55.09.35.05-.19.05-.5 0-.7-.05-.2-.1-.04-.1.35m-84.68 8.57c0 .44.04.6.09.35.05-.25.04-.61 0-.8-.06-.2-.1 0-.1.45m19.87 14.97c2.02.04 5.33.04 7.36 0 2.02-.03.37-.06-3.68-.06s-5.7.03-3.68.06m50.92 0c.76.04 1.94.04 2.63 0 .68-.04.07-.07-1.37-.07-1.45 0-2 .03-1.26.07m8.16 0c.8.04 2.12.04 2.93 0 .8-.04.14-.07-1.46-.07-1.61 0-2.27.03-1.47.07m13.01 9.53c0 .5.04.7.1.46.04-.25.04-.66 0-.91-.06-.25-.1-.05-.1.45m-97 1.21c0 .4.04.55.1.36.04-.2.04-.52 0-.71-.06-.2-.1-.04-.1.35m12.1 18.15c0 .5.05.7.1.45.04-.24.04-.65 0-.9-.05-.25-.1-.05-.1.45m36.65 2.89c0 .03.3.33.66.65l.65.6-.59-.66c-.55-.61-.72-.75-.72-.6m6.2 9.57c.37.04.92.04 1.22 0 .3-.05 0-.09-.66-.09-.67 0-.91.04-.55.09M127.9 125c0 .4.04.55.09.36.05-.2.05-.51 0-.7-.05-.2-.1-.04-.1.34m67.38 2.42c0 .95.04 1.33.08.86.04-.47.04-1.24 0-1.71s-.08-.09-.08.85m-53.35-.46c.25.05.61.05.8 0 .2-.05 0-.1-.45-.09-.44 0-.6.04-.35.1m11.09 2.61c.25.05.61.05.8 0 .2-.05 0-.1-.45-.09-.44 0-.6.04-.35.1m3.63 0c.25.04.65.04.9 0 .25-.06.05-.1-.45-.1s-.7.04-.45.1m23.44 23.54c-.5.5-.85.91-.8.91.07 0 .51-.4 1-.9s.85-.91.79-.91a7 7 0 00-1 .9m3.43 4.7l-1.3 1.35 1.36-1.3a24.5 24.5 0 001.36-1.36c0-.15-.2.04-1.42 1.3m-18.89 2.88c0 .6.04.86.09.55.04-.3.04-.8 0-1.1-.05-.31-.09-.06-.09.55m14.14 18.55c0 1.83.03 2.58.07 1.66.04-.91.04-2.4 0-3.32-.04-.92-.07-.17-.07 1.66m-48.02 2.02c0 .6.04.86.09.55.04-.3.04-.8 0-1.1-.05-.31-.09-.06-.09.55m17.13 3.36c.2.05.52.05.71 0 .2-.05.04-.1-.35-.1-.4 0-.55.05-.36.1m-8.67.2c.3.05.8.05 1.11 0 .3-.04.06-.08-.55-.08-.61 0-.86.04-.56.09m-5.54.2c.36.05.9.05 1.21 0 .3-.05 0-.08-.66-.08s-.91.04-.55.08m30.95 24.66c0 .39.04.55.1.35.04-.2.04-.51 0-.7-.06-.2-.1-.04-.1.35m-9.47 6.35c0 .56.04.76.09.45.04-.3.04-.76 0-1-.05-.25-.09 0-.09.55m-72.8 18.2c3.63.03 9.57.03 13.2 0 3.64-.03.67-.06-6.6-.06-7.26 0-10.24.03-6.6.06m37.7 0c3.3.03 8.7.03 12 0 3.3-.03.6-.06-6-.06s-9.3.03-6 .06m36.02 0c6.69.03 17.58.03 24.2 0 6.61-.03 1.14-.05-12.17-.05-13.3 0-18.72.02-12.03.05m71.36 8.26c.36.05 1 .05 1.42 0 .41-.04.12-.08-.66-.08-.77 0-1.11.04-.76.08m-60.49 15.94c2.47.03 6.5.03 8.97 0 2.47-.03.45-.06-4.48-.06-4.94 0-6.96.03-4.49.06m42.06 5.8c0 .66.04.91.08.55.05-.36.05-.9 0-1.21-.05-.3-.08 0-.08.66m-19.77 2.32c0 .6.04.86.09.55.04-.3.04-.8 0-1.1-.05-.31-.09-.06-.09.55m37.8 14.26c.37.04.95.04 1.32 0 .36-.05.06-.08-.66-.08s-1.02.03-.66.08m-8.97 10.28c.2.05.51.05.7 0 .2-.06.04-.1-.35-.1-.38 0-.54.04-.35.1m5.85 0c.2.05.51.05.7 0 .2-.06.04-.1-.35-.1-.39 0-.55.04-.35.1M95.74 306.44c32.63.03 86.04.03 118.67 0 32.64-.02 5.94-.05-59.34-.05-65.27 0-91.97.03-59.33.05"/><path fill="#9c9c9c" d="M192.38 29.12c.38.38.73.7.79.7.05 0-.21-.32-.59-.7-.37-.4-.73-.71-.78-.71-.06 0 .2.32.58.7m3.23 253.49c.37.39.73.7.78.7.06 0-.2-.31-.58-.7a4.1 4.1 0 00-.79-.7c-.05 0 .21.31.59.7"/><path fill="#bcbcbc" d="M3.9 14.7c0 .6.03.86.08.55.04-.3.04-.8 0-1.1-.05-.31-.09-.06-.09.55m130.16 10.22c.25.05.62.05.81 0 .2-.05-.01-.1-.46-.09-.44 0-.6.04-.35.1m1.82 7.86c.25.05.61.04.8 0 .2-.06 0-.1-.45-.1-.44 0-.6.05-.35.1m54.16 26.68c0 .72.03 1.01.08.65a6.5 6.5 0 000-1.31c-.05-.36-.08-.07-.08.66m20.75 8.97c0 .44.05.6.1.35a2.2 2.2 0 00-.01-.8c-.05-.2-.1 0-.09.45m-9.48.5c0 .4.04.55.1.36.04-.2.04-.52 0-.7-.06-.2-.1-.04-.1.34m-29.44 11.03c.2.05.51.05.7 0 .2-.05.04-.1-.35-.1-.38 0-.54.05-.35.1m25.2 12.77c0 .39.05.55.1.35.05-.2.05-.51 0-.7-.05-.2-.1-.04-.1.35m-76.21 36.7c0 .5.04.7.08.45.05-.25.05-.65 0-.9-.04-.25-.08-.05-.08.45m30.44 2.96c.2.05.51.05.7 0 .2-.05.04-.09-.34-.09-.4 0-.55.04-.36.1m6.66 4.23c.2.05.5.05.7 0 .2-.05.04-.1-.35-.1-.39 0-.55.05-.35.1m2.22 0c.19.05.5.05.7 0 .2-.05.04-.1-.35-.1-.39 0-.55.05-.35.1m13.92 2.28c0 .72.04 1.01.08.65.05-.36.05-.95 0-1.3-.04-.37-.08-.07-.08.65m-3.03 31.6c.3.05.76.05 1 0 .25-.05 0-.09-.55-.09-.56 0-.76.05-.45.1m-29.55.4c.26.04.62.04.81-.01.2-.05-.01-.1-.45-.09-.45 0-.6.04-.36.1m37.4 3.08c0 .38.05.54.1.35.05-.2.05-.51 0-.7-.05-.2-.1-.04-.1.35m-10.68 10.22c.2.05.51.05.7 0 .2-.05.04-.1-.35-.1-.38 0-.54.05-.35.1m-24.3.61c.37.05.91.04 1.22 0 .3-.05 0-.08-.66-.08-.67 0-.92.04-.55.08m11.2 13.06c0 .56.03.76.08.45.04-.3.04-.76 0-1-.05-.25-.09 0-.09.55m.02 12.7c0 1.23.03 1.7.07 1.06.04-.64.04-1.64 0-2.22-.04-.58-.07-.05-.07 1.17m9.68 3.83c0 1.44.03 2 .07 1.25.04-.75.04-1.93 0-2.62-.04-.69-.07-.07-.07 1.37m-46.81 76.06c.2.05.51.05.7 0 .2-.05.04-.1-.35-.1-.39 0-.54.05-.35.1"/><path fill="#f4839a" d="M13.4 13.54l-.6.65.66-.59c.36-.32.66-.62.66-.65 0-.16-.17-.02-.72.59m-1.46 3.58c0 .39.05.54.1.35.05-.2.05-.51 0-.7-.05-.2-.1-.04-.1.35"/><path fill="#ccc" d="M230.6 115.02c0 56.79.02 79.99.04 51.56.03-28.43.03-74.9 0-103.25-.02-28.36-.05-5.1-.05 51.7M157 41.51c.55.55 1.04 1 1.1 1 .05 0-.35-.45-.9-1a7.92 7.92 0 00-1.1-1.01c-.05 0 .35.45.9 1m-30.66 5.1l-.8.86.86-.8c.8-.74.95-.92.8-.92-.04 0-.42.39-.86.86m59.89 56.87l-.6.65.66-.59a5 5 0 00.66-.66c0-.15-.17-.01-.72.6m-15.62 16.95c0 .03.3.33.66.65l.65.6-.59-.66c-.55-.61-.72-.75-.72-.6m27.62 123.71l-.7.76.76-.7c.7-.64.85-.81.7-.81-.04 0-.38.34-.76.75m14.73 30.97c0 .03.3.33.65.65l.66.6-.6-.66c-.54-.6-.71-.75-.71-.6"/></g></svg>