<svg id="Layer_1" data-name="Layer 1" xmlns="http://www.w3.org/2000/svg" viewBox="0 0 800 772.42"><defs><style>.cls-1{fill:#24ae5f;}.cls-2{fill:#1b8746;}.cls-3{fill:#65db95;}.cls-4{fill:#f0c419;}</style></defs><title>money_6</title><path class="cls-1" d="M758.62,678.49a82.76,82.76,0,1,1,0-143.19V13.8H275.86V786.21H758.62Z" transform="translate(0 -13.79)"/><path class="cls-2" d="M620.69,710.34A75.74,75.74,0,0,1,648,652.09a82.6,82.6,0,0,1,55.48-126.71V165.17c-2.28.21-4.57.34-6.9.34a75.86,75.86,0,0,1-75.86-75.86c0-2.33.14-4.62.34-6.9H459.5A82.74,82.74,0,1,1,344.83,197.43v437.4c2.27-.2,4.56-.35,6.89-.35a75.86,75.86,0,0,1,75.87,75.86c0,2.33-.14,4.62-.35,6.9H621c-.2-2.28-.34-4.57-.34-6.9" transform="translate(0 -13.79)"/><path class="cls-3" d="M412.26,413.79a69,69,0,0,1,69-69,13.8,13.8,0,1,1,0,27.59,41.38,41.38,0,0,0-26.7,73A20.09,20.09,0,0,0,469.76,450a22.62,22.62,0,0,0,15.44-8.58l56.11-72.14a50.35,50.35,0,0,1,34.36-19.07,47.38,47.38,0,0,1,35.9,10.95,69,69,0,0,1-44.51,121.63,13.8,13.8,0,1,1,0-27.59,41.37,41.37,0,0,0,26.69-73,20.12,20.12,0,0,0-15.23-4.57,22.59,22.59,0,0,0-15.43,8.58L507,458.33a50.36,50.36,0,0,1-34.36,19.07,47.43,47.43,0,0,1-35.92-10.95,68.84,68.84,0,0,1-24.44-52.66" transform="translate(0 -13.79)"/><path class="cls-3" d="M387.74,413.79A13.8,13.8,0,0,1,401.54,400H648.28a13.79,13.79,0,1,1,0,27.58H401.53a13.8,13.8,0,0,1-13.79-13.79" transform="translate(0 -13.79)"/><polygon class="cls-2" points="220.69 0 220.69 772.41 275.86 772.41 275.86 0 220.69 0"/><polygon class="cls-1" points="165.52 0 165.52 772.41 220.69 772.41 220.69 0 165.52 0"/><path class="cls-4" d="M82.76,703.45a82.76,82.76,0,1,1,82.76-82.76,82.78,82.78,0,0,1-82.76,82.76" transform="translate(0 -13.79)"/><path class="cls-4" d="M717.24,689.65A82.76,82.76,0,1,1,800,606.89a82.77,82.77,0,0,1-82.76,82.76" transform="translate(0 -13.79)"/><path class="cls-4" d="M413.79,234.48a82.76,82.76,0,1,1,82.76-82.76,82.78,82.78,0,0,1-82.76,82.76" transform="translate(0 -13.79)"/><path class="cls-1" d="M82.76,537.93a82.46,82.46,0,0,1,27.59,4.81V13.79H55.17v529a82.46,82.46,0,0,1,27.59-4.81" transform="translate(0 -13.79)"/><path class="cls-1" d="M110.35,698.64a81.53,81.53,0,0,1-55.18,0v87.57h55.18Z" transform="translate(0 -13.79)"/><path class="cls-2" d="M110.35,13.79v529a82.72,82.72,0,0,1,55.17,78V13.79Z" transform="translate(0 -13.79)"/><path class="cls-2" d="M165.52,620.69a82.7,82.7,0,0,1-55.17,77.94V786.2h55.17Z" transform="translate(0 -13.79)"/></svg>