<svg fill="#03c04a"
    xmlns="http://www.w3.org/2000/svg" viewBox="0 150 800 500">
    <path d="M140.7,410.07c0,12.31-10.77,23.08-23.08,23.08H68.39c-12.31,0-23.08-10.77-23.08-23.08V360.84c0-12.31,10.77-23.07,23.08-23.07h49.23c12.31,0,23.08,10.76,23.08,23.07Z"/>
    <path d="M259.16,433.15c32.31,0,61.54,20,73.84,47.69v1.54c32.31,80,110.77,135.39,203.08,135.39,120,0,218.46-98.47,218.46-218.47,0-110.77-81.54-203.07-187.69-218.46h-1.54c-13.84-1.54-24.61,9.23-24.61,23.08v49.23c0,12.31,7.69,21.54,16.92,23.08h3.08c56.92,10.77,100,61.54,100,121.54A124.1,124.1,0,0,1,536.08,522.38c-32.31,0-61.54-12.31-84.61-32.31l-1.54-1.54c-15.39-13.84-24.62-32.3-30.77-50.76-21.54-61.54-80-103.08-144.62-103.08H251.47a21,21,0,0,0-21.54,21.54v49.23c0,12.31,9.23,24.61,23.07,24.61Z"/>
</svg>