<?xml version="1.0" encoding="utf-8"?>
<svg viewBox="-25 -25 850 850"
    xmlns="http://www.w3.org/2000/svg">
    <path fill-rule="evenodd" clip-rule="evenodd" fill="whitesmoke" stroke="#000000" stroke-width="16" stroke-miterlimit="10" d="
	M66.7,400C66.7,215.9,215.9,66.7,400,66.7c184.1,0,333.3,149.2,333.3,333.3c0,184.1-149.2,333.3-333.3,333.3
	C215.9,733.3,66.7,584.1,66.7,400z"/>
    <path fill-rule="evenodd" clip-rule="evenodd" fill="#cc7500" d="M343.4,247.8c31.2-31.2,81.9-31.2,113.2,0l68.5,68.5c8.1,8.1,20.5,10.1,30.8,5
	l19-9.5c40.9-20.5,86.2,18.8,71.7,62.2l-49,147c-10.9,32.7-41.5,54.7-75.9,54.7H278.4c-34.4,0-65-22-75.9-54.7l-49-147
	c-14.5-43.4,30.8-82.7,71.7-62.2l19,9.5c10.3,5.1,22.7,3.1,30.8-5L343.4,247.8z"/>
</svg>