<?xml version="1.0" encoding="utf-8"?>
<svg viewBox="-25 -25 850 850"
    xmlns="http://www.w3.org/2000/svg">
    <path fill-rule="evenodd" clip-rule="evenodd" fill="black" stroke="black" stroke-width="12" stroke-miterlimit="10" d="
	M66.7,400C66.7,215.9,215.9,66.7,400,66.7c184.1,0,333.3,149.2,333.3,333.3c0,184.1-149.2,333.3-333.3,333.3
	C215.9,733.3,66.7,584.1,66.7,400z"/>
    <path fill-rule="evenodd" clip-rule="evenodd" fill="#cc7500" d="M353.3,274.3c25.8-25.8,67.7-25.8,93.5,0l56.5,56.5c6.7,6.7,17,8.4,25.4,4.1
	l15.7-7.8c33.8-16.9,71.2,15.5,59.2,51.4l-40.5,121.4c-9,27-34.3,45.2-62.7,45.2H299.6c-28.5,0-53.7-18.2-62.7-45.2l-40.5-121.4
	c-12-35.9,25.4-68.3,59.2-51.4l15.7,7.8c8.5,4.2,18.7,2.6,25.4-4.1L353.3,274.3z"/>
</svg>